<mxfile host="Electron" modified="2024-04-07T12:24:48.097Z" agent="Mozilla/5.0 (Windows NT 10.0; Win64; x64) AppleWebKit/537.36 (KHTML, like Gecko) draw.io/24.1.0 Chrome/120.0.6099.109 Electron/28.1.0 Safari/537.36" etag="GyCXwa2IUAWLMGdNCATQ" version="24.1.0" type="device">
  <diagram name="第 1 页" id="nKvDSOz8tpYadV7Bx15V">
    <mxGraphModel dx="1050" dy="621" grid="1" gridSize="10" guides="1" tooltips="1" connect="1" arrows="1" fold="1" page="1" pageScale="1" pageWidth="827" pageHeight="1169" math="0" shadow="0">
      <root>
        <mxCell id="0" />
        <mxCell id="1" parent="0" />
        <mxCell id="dQ_VZXsTwxpT51hGCoE4-3" value="" style="edgeStyle=orthogonalEdgeStyle;rounded=0;orthogonalLoop=1;jettySize=auto;html=1;" edge="1" parent="1" source="dQ_VZXsTwxpT51hGCoE4-1" target="dQ_VZXsTwxpT51hGCoE4-2">
          <mxGeometry relative="1" as="geometry" />
        </mxCell>
        <mxCell id="dQ_VZXsTwxpT51hGCoE4-1" value="点击按钮" style="rounded=1;whiteSpace=wrap;html=1;arcSize=50;" vertex="1" parent="1">
          <mxGeometry x="200" y="50" width="120" height="50" as="geometry" />
        </mxCell>
        <mxCell id="dQ_VZXsTwxpT51hGCoE4-5" value="" style="edgeStyle=orthogonalEdgeStyle;rounded=0;orthogonalLoop=1;jettySize=auto;html=1;" edge="1" parent="1" source="dQ_VZXsTwxpT51hGCoE4-2" target="dQ_VZXsTwxpT51hGCoE4-4">
          <mxGeometry relative="1" as="geometry" />
        </mxCell>
        <mxCell id="dQ_VZXsTwxpT51hGCoE4-2" value="弹出modal弹窗&lt;div&gt;背景模糊&lt;/div&gt;" style="rounded=0;whiteSpace=wrap;html=1;" vertex="1" parent="1">
          <mxGeometry x="200" y="140" width="120" height="40" as="geometry" />
        </mxCell>
        <mxCell id="dQ_VZXsTwxpT51hGCoE4-7" value="" style="edgeStyle=orthogonalEdgeStyle;rounded=0;orthogonalLoop=1;jettySize=auto;html=1;" edge="1" parent="1" source="dQ_VZXsTwxpT51hGCoE4-4" target="dQ_VZXsTwxpT51hGCoE4-6">
          <mxGeometry relative="1" as="geometry" />
        </mxCell>
        <mxCell id="dQ_VZXsTwxpT51hGCoE4-4" value="点击X关闭窗口和背景模糊" style="rounded=0;whiteSpace=wrap;html=1;" vertex="1" parent="1">
          <mxGeometry x="200" y="220" width="120" height="40" as="geometry" />
        </mxCell>
        <mxCell id="dQ_VZXsTwxpT51hGCoE4-9" value="" style="edgeStyle=orthogonalEdgeStyle;rounded=0;orthogonalLoop=1;jettySize=auto;html=1;" edge="1" parent="1" source="dQ_VZXsTwxpT51hGCoE4-6" target="dQ_VZXsTwxpT51hGCoE4-8">
          <mxGeometry relative="1" as="geometry" />
        </mxCell>
        <mxCell id="dQ_VZXsTwxpT51hGCoE4-6" value="点击空白处关闭弹窗和背景模糊" style="rounded=0;whiteSpace=wrap;html=1;" vertex="1" parent="1">
          <mxGeometry x="200" y="300" width="120" height="40" as="geometry" />
        </mxCell>
        <mxCell id="dQ_VZXsTwxpT51hGCoE4-11" value="" style="edgeStyle=orthogonalEdgeStyle;rounded=0;orthogonalLoop=1;jettySize=auto;html=1;" edge="1" parent="1" source="dQ_VZXsTwxpT51hGCoE4-8" target="dQ_VZXsTwxpT51hGCoE4-10">
          <mxGeometry relative="1" as="geometry" />
        </mxCell>
        <mxCell id="dQ_VZXsTwxpT51hGCoE4-8" value="键盘事件：按下ESC键关闭弹窗和背景模糊" style="rounded=0;whiteSpace=wrap;html=1;" vertex="1" parent="1">
          <mxGeometry x="200" y="370" width="120" height="50" as="geometry" />
        </mxCell>
        <mxCell id="dQ_VZXsTwxpT51hGCoE4-10" value="结束" style="rounded=0;whiteSpace=wrap;html=1;" vertex="1" parent="1">
          <mxGeometry x="200" y="460" width="120" height="40" as="geometry" />
        </mxCell>
      </root>
    </mxGraphModel>
  </diagram>
</mxfile>
